<svg width="161" height="44" viewBox="0 0 161 44" fill="none" xmlns="http://www.w3.org/2000/svg">
<path d="M0 0.527999V34.128H3.84V0.527999H0Z" fill="black"/>
<path d="M9.522 21.504C9.522 28.944 14.802 34.656 21.906 34.656C28.962 34.656 34.29 28.944 34.29 21.504C34.29 14.064 28.962 8.4 21.906 8.4C14.802 8.4 9.522 14.064 9.522 21.504ZM30.45 21.504C30.45 27.072 26.802 31.536 21.906 31.536C17.01 31.536 13.362 27.072 13.362 21.504C13.362 15.888 17.01 11.52 21.906 11.52C26.802 11.52 30.45 15.888 30.45 21.504Z" fill="black"/>
<path d="M50.1615 8.4C43.9215 8.4 39.1215 12.432 38.9775 18.816H42.8175C42.8655 13.92 46.4175 11.424 50.2575 11.424C54.9135 11.424 56.9775 14.928 56.9775 16.944V17.232L48.1455 19.344C44.5935 20.208 38.4975 22.32 38.4975 27.6C38.4975 31.872 42.6255 34.608 47.4255 34.608C52.7055 34.608 55.6335 30.816 56.9775 26.448V34.128H60.8175V18.144C60.8175 11.76 55.7775 8.4 50.1615 8.4ZM48.1455 31.44C44.8335 31.44 42.4815 29.808 42.4815 27.264C42.4815 24.432 45.4575 22.896 49.1055 21.888L56.9775 19.728C56.9775 23.136 55.2015 31.44 48.1455 31.44Z" fill="black"/>
<path d="M86.883 0.527999V15.12C85.539 11.136 81.795 8.4 77.571 8.4C71.043 8.4 66.195 13.92 66.195 21.408C66.195 29.04 71.091 34.656 77.859 34.656C81.843 34.656 85.251 32.064 86.931 28.128V34.128H90.723V0.527999H86.883ZM78.387 31.632C73.587 31.632 70.035 27.264 70.035 21.408C70.035 15.696 73.587 11.424 78.387 11.424C83.331 11.424 86.979 15.744 86.979 21.936C86.979 27.408 83.331 31.632 78.387 31.632Z" fill="black"/>
<path d="M97.1974 2.784C97.1974 4.416 98.3974 5.616 100.029 5.616C101.613 5.616 102.813 4.416 102.813 2.784C102.813 1.2 101.613 0 100.029 0C98.3974 0 97.1974 1.2 97.1974 2.784ZM98.1094 8.928V34.128H101.949V8.928H98.1094Z" fill="black"/>
<path d="M122.511 8.4C117.471 8.4 114.351 12.336 113.199 16.608V8.928H109.359V34.128H113.199V22.368C113.199 17.904 116.079 11.76 121.215 11.76C125.967 11.76 127.311 14.688 127.311 21.264V34.128H131.151V20.16C131.151 11.808 128.223 8.4 122.511 8.4Z" fill="black"/>
<path d="M156.378 8.976V13.68C155.418 10.656 152.106 8.4 147.882 8.4C141.354 8.4 136.554 13.872 136.554 21.264C136.554 28.368 141.498 33.552 148.122 33.552C152.106 33.552 155.226 31.248 156.522 27.936V32.592C156.522 37.776 153.018 40.416 148.986 40.416C145.29 40.416 141.786 38.16 141.69 34.752H137.85C138.042 39.888 143.13 43.344 149.034 43.344C155.226 43.344 160.218 39.648 160.218 32.592V8.976H156.378ZM148.746 30.912C144.81 30.912 140.394 27.696 140.394 21.168C140.394 15.456 143.706 11.136 148.65 11.136C153.93 11.136 156.714 16.08 156.714 21.264C156.714 27.168 153.018 30.912 148.746 30.912Z" fill="black"/>
</svg>
