<svg width="3544" height="625" viewBox="0 0 3544 625" fill="none" xmlns="http://www.w3.org/2000/svg">
<path d="M224.184 14.9911H0V491.979H71.5482V297.096H231.68C307.998 297.096 368.644 241.901 368.644 151.955C368.644 68.1412 305.954 14.9911 224.184 14.9911ZM213.282 241.901H71.5482V70.1854H210.556C262.344 70.1854 297.777 100.849 297.777 151.955C297.777 208.512 263.706 241.901 213.282 241.901Z" fill="black"/>
<path d="M435.055 14.9911V491.979H503.196V14.9911H435.055Z" fill="black"/>
<path d="M848.086 134.238V288.919C848.086 346.839 820.148 438.829 745.193 438.829C679.777 438.829 666.149 389.768 666.149 314.812V134.238H598.008V344.794C598.008 451.095 640.937 500.156 719.299 500.156C784.715 500.156 829.007 453.139 848.086 386.36V491.979H916.227V134.238H848.086Z" fill="black"/>
<path d="M1082.8 226.91V134.238H1014.65V491.979H1082.8V289.6C1082.8 230.317 1127.77 194.884 1167.29 194.884C1180.24 194.884 1195.23 198.291 1204.09 201.698V128.105C1149.57 128.105 1099.15 164.22 1082.8 226.91Z" fill="black"/>
<path d="M1405.49 126.061C1312.81 126.061 1243.31 183.981 1241.27 271.883H1309.41C1309.41 211.919 1355.06 177.848 1406.17 177.848C1467.49 177.848 1493.39 221.459 1493.39 250.76V254.167L1374.82 282.104C1314.86 295.733 1234.45 329.803 1234.45 401.352C1234.45 457.909 1285.56 498.793 1353.7 498.793C1426.61 498.793 1471.58 447.688 1493.39 384.998V491.979H1561.53V265.069C1561.53 176.486 1490.66 126.061 1405.49 126.061ZM1373.46 443.599C1333.26 443.599 1306.68 423.157 1306.68 394.537C1306.68 361.83 1342.12 339.343 1389.81 325.715L1493.39 294.37C1493.39 343.432 1459.32 443.599 1373.46 443.599Z" fill="black"/>
<path d="M1655.47 14.9911V491.979H1723.62V14.9911H1655.47Z" fill="black"/>
<path d="M1794.58 363.193C1794.58 427.927 1849.77 500.156 1960.84 500.156C2061.01 500.156 2112.8 442.918 2112.8 384.998C2112.8 304.591 2017.4 292.326 1956.75 281.423C1904.97 272.565 1874.98 263.706 1874.98 233.043C1874.98 195.565 1915.19 177.848 1954.03 177.848C2012.63 177.848 2028.3 217.37 2028.98 255.529H2097.12C2097.12 202.379 2065.1 126.061 1952.67 126.061C1862.04 126.061 1806.84 175.804 1806.84 237.813C1806.84 317.538 1894.75 328.44 1957.44 340.024C2002.41 348.883 2044.66 355.697 2044.66 391.812C2044.66 428.608 2002.41 448.369 1964.25 448.369C1938.36 448.369 1862.72 436.104 1862.72 363.193H1794.58Z" fill="black"/>
<path d="M2173.58 45.6546C2173.58 71.5482 2192.66 90.6278 2219.24 90.6278C2245.13 90.6278 2264.89 71.5482 2264.89 45.6546C2264.89 19.761 2245.13 0 2219.24 0C2192.66 0 2173.58 19.761 2173.58 45.6546ZM2185.17 134.238V491.979H2253.31V134.238H2185.17Z" fill="black"/>
<path d="M2607.74 134.92V196.928C2593.43 155.362 2548.45 126.061 2491.21 126.061C2397.18 126.061 2329.04 203.742 2329.04 309.361C2329.04 411.573 2397.86 484.484 2491.9 484.484C2549.13 484.484 2592.06 453.139 2609.78 406.803V468.811C2609.78 538.997 2567.53 575.793 2511.66 575.793C2462.6 575.793 2421.03 546.492 2417.62 503.563H2349.48C2355.61 575.793 2425.8 624.173 2513.02 624.173C2605.01 624.173 2675.88 571.023 2675.88 468.811V134.92H2607.74ZM2506.89 436.104C2451.01 436.104 2397.18 392.493 2397.18 307.317C2397.18 230.999 2440.11 175.804 2505.52 175.804C2575.03 175.804 2612.51 237.813 2612.51 309.361C2612.51 388.405 2565.49 436.104 2506.89 436.104Z" fill="black"/>
<path d="M2971.01 126.061C2905.59 126.061 2861.3 173.079 2842.22 239.857V14.9911H2774.08V491.979H2842.22V337.299C2842.22 279.379 2870.16 187.388 2945.11 187.388C3010.53 187.388 3024.16 236.45 3024.16 311.405V491.979H3092.3V281.423C3092.3 175.123 3049.37 126.061 2971.01 126.061Z" fill="black"/>
<path d="M3341.43 442.918C3308.04 442.918 3288.28 427.245 3288.28 376.821V186.707H3391.17V134.92H3288.28V28.6193H3238.54L3220.14 134.238V134.92H3139.05V186.707H3220.14V376.821C3220.14 449.05 3252.85 500.156 3324.4 500.156C3353.01 500.156 3382.32 491.979 3400.03 473.581V414.298C3387.77 431.334 3367.32 442.918 3341.43 442.918Z" fill="black"/>
<path d="M3464.18 14.9911L3473.71 380.909H3525.5L3535.72 14.9911H3464.18ZM3455.32 457.909C3455.32 483.121 3474.4 502.882 3499.61 502.882C3524.14 502.882 3543.9 483.121 3543.9 457.909C3543.9 433.378 3524.14 413.617 3499.61 413.617C3474.4 413.617 3455.32 433.378 3455.32 457.909Z" fill="black"/>
</svg>
